<svg version="1.2" xmlns="http://www.w3.org/2000/svg" viewBox="0 0 4200 2260" width="4200" height="2260">
	<title>background-footer-svg</title>
	<style>
		.s0 { fill: #705db2 } 
	</style>
	<path id="Capa 2" class="s0" d="m-516 178.4c327.8-268.6 696.8 98.4 1391.4 82.7 627.7-14.2 628-139.3 1253.6-124 503.8 12.3 502.3 115.7 1006 130.9 752.6 22.7 778.9-274.6 1508.1-151.6 310.3 52.4 434.1 3 606.2 220.4 159.9 202 99.3 300.4 89.5 592.4-21.7 651.1 11.4 923.1-399.8 1274.8-1530.7 1309.2-3626.6 1464.9-4973 34-572.7-608.6-979.5-1652-482-2059.6z"/>
	<path id="Forma 1" class="s0" d="m7384 1130"/>
</svg>